<?xml version="1.0" standalone="no"?>
<!DOCTYPE svg PUBLIC "-//W3C//DTD SVG 20010904//EN"
 "http://www.w3.org/TR/2001/REC-SVG-20010904/DTD/svg10.dtd">
<svg version="1.0" xmlns="http://www.w3.org/2000/svg"
 width="500.000000pt" height="500.000000pt" viewBox="0 0 500.000000 500.000000"
 preserveAspectRatio="xMidYMid meet">

<g transform="translate(0.000000,500.000000) scale(0.100000,-0.100000)"
fill="#000000" stroke="none">
<path d="M1025 4061 c-168 -42 -290 -151 -336 -301 -19 -63 -20 -90 -17 -760
l3 -695 34 -72 c59 -127 174 -215 331 -254 78 -20 266 -15 355 8 l70 19 3 97
3 96 -54 -24 c-30 -14 -81 -30 -113 -36 -72 -14 -202 -6 -266 16 -70 24 -133
85 -157 151 -20 53 -21 73 -21 712 0 399 4 671 10 692 19 71 63 123 131 160
56 29 75 35 152 38 91 5 167 -6 274 -39 l63 -20 0 -164 0 -165 90 0 90 0 0
209 0 210 -29 20 c-48 34 -203 89 -296 106 -113 19 -232 18 -320 -4z"/>
<path d="M1500 3240 l0 -120 -150 0 -150 0 0 -80 0 -80 150 0 150 0 0 -360 0
-360 110 0 c71 0 110 4 110 11 0 10 166 8 585 -7 l150 -5 -30 31 c-16 17 -55
44 -87 60 -32 16 -58 32 -56 37 1 4 21 20 45 35 51 33 94 90 125 167 21 51 23
72 23 241 0 167 -2 192 -23 256 -55 167 -187 263 -392 285 -47 5 -192 9 -322
9 l-238 0 0 -120z m654 -80 c105 -54 136 -134 136 -350 0 -210 -34 -291 -147
-346 -56 -28 -64 -29 -240 -33 l-183 -3 0 345 c0 297 -2 346 -15 351 -16 6
-21 47 -7 60 4 4 97 6 207 4 191 -3 203 -4 249 -28z"/>
<path d="M2461 2144 c-53 -68 13 -154 96 -127 22 7 29 17 31 41 2 23 -1 32
-12 32 -9 0 -16 -11 -18 -27 -2 -23 -8 -28 -32 -28 -42 0 -74 45 -58 80 14 31
49 46 81 33 26 -9 37 -5 26 11 -3 6 -26 11 -50 11 -35 0 -48 -5 -64 -26z"/>
<path d="M2630 2090 l0 -80 44 0 c65 0 96 14 96 44 0 14 -4 28 -10 31 -5 3 -7
20 -3 36 8 39 -6 49 -74 49 l-53 0 0 -80z m88 64 c25 -7 30 -39 6 -48 -9 -3
-27 -6 -40 -6 -20 0 -24 5 -24 30 0 32 11 36 58 24z m17 -78 c30 -22 12 -46
-35 -46 -38 0 -40 2 -40 30 0 26 4 30 28 30 16 0 37 -6 47 -14z"/>
<path d="M2819 2153 c5 -10 16 -27 24 -38 14 -18 12 -23 -15 -62 -22 -33 -25
-43 -13 -43 8 0 15 3 15 8 0 4 9 18 20 32 l20 25 29 -35 c37 -44 52 -33 17 13
-32 42 -32 42 0 84 30 40 10 46 -22 6 l-22 -28 -22 28 c-24 30 -47 38 -31 10z"/>
<path d="M1500 1619 l0 -331 328 4 c371 5 403 10 521 89 123 82 178 200 188
401 l6 117 151 4 151 3 -152 2 c-146 2 -153 3 -153 22 0 19 -7 20 -94 20 l-93
0 -5 -137 c-6 -163 -25 -219 -93 -282 -64 -59 -98 -66 -345 -66 l-215 0 -3
243 -2 242 -95 0 -95 0 0 -331z"/>
<path d="M2950 1905 c-7 -9 -8 -15 -2 -15 5 0 12 7 16 15 3 8 4 15 2 15 -2 0
-9 -7 -16 -15z"/>
<path d="M3645 1909 c-4 -6 -5 -12 -2 -15 2 -3 7 2 10 11 7 17 1 20 -8 4z"/>
<path d="M3751 1906 c-7 -8 -8 -17 -3 -20 6 -3 12 3 15 14 6 24 4 25 -12 6z"/>
<path d="M3055 1900 c-3 -5 -1 -10 4 -10 6 0 11 5 11 10 0 6 -2 10 -4 10 -3 0
-8 -4 -11 -10z"/>
<path d="M3819 1883 c-13 -16 -12 -17 4 -4 16 13 21 21 13 21 -2 0 -10 -8 -17
-17z"/>
<path d="M3541 1844 c0 -11 3 -14 6 -6 3 7 2 16 -1 19 -3 4 -6 -2 -5 -13z"/>
</g>
</svg>
