<?xml version="1.0" standalone="no"?>
<!DOCTYPE svg PUBLIC "-//W3C//DTD SVG 20010904//EN"
 "http://www.w3.org/TR/2001/REC-SVG-20010904/DTD/svg10.dtd">
<svg version="1.0" xmlns="http://www.w3.org/2000/svg"
 width="500.000000pt" height="500.000000pt" viewBox="0 0 500.000000 500.000000"
 preserveAspectRatio="xMidYMid meet">

<g transform="translate(0.000000,500.000000) scale(0.100000,-0.100000)"
fill="#000000" stroke="none">
<path d="M1545 4871 c-152 -38 -267 -128 -326 -254 l-34 -72 -3 -690 c-3 -619
-1 -696 14 -753 43 -164 186 -285 379 -323 91 -18 242 -14 334 10 46 12 101
31 122 42 21 10 41 19 44 19 3 0 5 -178 5 -395 l0 -395 -34 0 -33 0 -184 -384
c-101 -212 -186 -383 -189 -381 -3 2 -88 174 -190 384 l-185 381 -107 0 c-60
0 -108 -2 -108 -5 0 -3 108 -226 240 -495 l239 -490 -259 -529 c-143 -290
-260 -531 -260 -534 0 -4 47 -7 105 -7 l105 0 208 419 c114 231 210 420 213
420 3 1 99 -188 213 -419 l208 -420 110 0 c84 0 109 3 105 13 -3 6 -121 248
-262 536 l-257 523 103 217 c56 119 129 270 160 336 l58 120 3 -240 3 -240
315 1 c263 0 326 3 379 17 175 47 287 161 327 334 24 104 16 407 -13 486 -40
106 -118 189 -210 221 l-34 12 53 34 c68 45 113 105 138 186 16 55 20 94 20
225 0 87 -5 182 -11 211 -27 126 -109 236 -212 283 -103 47 -156 55 -384 55
l-213 0 -2 303 -3 302 -262 3 -263 2 0 -90 0 -90 165 0 165 0 0 -344 c0 -397
6 -372 -105 -427 -179 -88 -427 -52 -512 73 -53 79 -55 116 -51 808 l3 625 24
53 c30 65 95 125 164 149 93 31 287 15 403 -33 l34 -14 0 -160 0 -160 90 0 90
0 0 213 0 214 -47 25 c-172 92 -423 130 -588 89z m1111 -1722 c168 -29 223
-138 212 -419 -6 -137 -29 -202 -89 -254 -65 -55 -117 -66 -320 -66 l-179 0 0
375 0 375 157 0 c86 0 185 -5 219 -11z m95 -934 c65 -23 105 -59 136 -122 27
-56 28 -64 31 -235 3 -141 0 -189 -13 -233 -19 -67 -68 -125 -133 -157 -44
-22 -61 -23 -269 -26 l-223 -4 0 396 0 396 214 0 c165 0 223 -3 257 -15z"/>
</g>
</svg>
